<?xml version="1.0" encoding="utf-8"?>
<svg viewBox="0 0 500 500" xmlns="http://www.w3.org/2000/svg">
  <path style="fill: rgb(255, 165, 0);" d="M 179.085 3.081 C 172.719 4.99 164.887 31.02 166.846 30.342 L 121.296 222.667 C 120.339 224.218 115.792 241.379 114.87 247.932 C 114.462 250.821 115.459 262.884 117.494 265.832 C 121.701 271.924 134.347 270.578 137.505 270.141 C 140.6 269.713 157.275 266.124 158.374 264.323 C 158.374 264.323 248.609 241.55 248.609 240.811 C 248.609 240.073 194.65 459.782 193.28 469.366 C 187.977 484.161 197.703 523.229 230.085 480.863 C 232.978 485.925 381.775 143.775 381.775 143.775 C 393.932 134.049 370.571 118.82 363.343 124.605 L 248.325 152.622 L 293.328 25.272 C 295.252 24.092 296.885 12.313 297.345 12.954 C 297.408 13.044 298.968 4.546 296.249 1.785 C 293.591 -0.913 289.158 0.289 284.233 0.147 C 278.806 -0.011 270.324 -0.024 270.597 0.036 C 237.248 0.134 207.076 0.423 207.076 0.423 C 206.114 -0.81 179.842 1.004 179.085 3.081 Z"/>
</svg>